# xmcd
#
# Track frame offsets: 
#        150
#        11179
#        25618
#        35448
#        51519
#        85783
#        104993
#        125255
#        138416
#        172511
#        188009
#        207217
#        229868
#        249721
#
# Disc length: 3603 seconds
#
# Revision: 0
# Processed by: cddbd v1.5PL3 Copyright (c) Steve Scherf et al.
# Submitted via: ExactAudioCopy v0.95a5
#
DISCID=b90e110e
DTITLE=Grapevine - Neo Blues
DYEAR=1999
DGENRE=Blues
TTITLE0=Grapevine
TTITLE1=Dusty Road
TTITLE2=Messin' With The Kid
TTITLE3=Walking The Dog
TTITLE4=Immigration Blues
TTITLE5=Further On Up The Road
TTITLE6=Need Your Love So Bad
TTITLE7=Tore Down
TTITLE8=Stormy Monday
TTITLE9=Key To The Highway
TTITLE10=Rock Me Baby
TTITLE11=Help Me
TTITLE12=Love With A Feeling
TTITLE13=Crossroads Blues
EXTD=
EXTT0=
EXTT1=
EXTT2=
EXTT3=
EXTT4=
EXTT5=
EXTT6=
EXTT7=
EXTT8=
EXTT9=
EXTT10=
EXTT11=
EXTT12=
EXTT13=
PLAYORDER=
